<?xml version="1.0" encoding="UTF-8"?>
<svg width="1024px" height="256px" viewBox="0 0 1024 256" version="1.1" xmlns="http://www.w3.org/2000/svg" xmlns:xlink="http://www.w3.org/1999/xlink">
    <title>logo-horizontal</title>
    <defs>
        <linearGradient x1="50%" y1="0%" x2="50%" y2="100%" id="linearGradient-1">
            <stop stop-color="#73A9D5" offset="0%"></stop>
            <stop stop-color="#4C91C9" offset="100%"></stop>
        </linearGradient>
    </defs>
    <g id="logo-horizontal" stroke="none" stroke-width="1" fill="none" fill-rule="evenodd">
        <g id="Logo" fill-rule="nonzero">
            <path d="M113.157993,152.085938 C126.259615,151.171226 127.796033,157.738165 127.976109,163.237816 L127.986405,163.611038 C127.994839,163.982405 127.998047,164.347908 127.999263,164.704836 L127.999999,165.233459 L127.999999,165.233459 L128,165.406457 L128,246.629134 C128,256.038901 123.741815,261.87236 110.183695,246.629134 C104.690597,240.32593 91.3183099,225.313246 85.229066,209.025429 C79.7792551,194.447999 79.1995427,186.777988 80.739492,178.160812 C82.5816972,167.852286 90.2328546,159.589095 98.2865006,155.984626 C103.688946,153.566722 107.024753,152.514141 113.157993,152.085938 Z M246.629134,127.999998 C256.038901,127.999998 261.87236,132.258249 246.629134,145.816349 C240.32593,151.309438 225.313246,164.681705 209.025429,170.77094 C194.447999,176.220743 186.777989,176.800454 178.160812,175.260507 C167.852286,173.418305 159.589095,165.767159 155.984626,157.713525 C153.566722,152.311088 152.514141,148.975286 152.085938,142.842055 C151.171226,129.740453 157.738165,128.203982 163.237816,128.023892 L163.611038,128.013595 C163.982405,128.00516 164.347908,128.001952 164.704836,128.000736 L165.058806,128.000063 C165.175776,127.99998 165.291693,127.999998 165.406457,127.999998 Z M46.974571,85.22906 C61.5520006,79.7792573 69.2220105,79.1995455 77.8391883,80.7394928 C88.1477143,82.5816952 96.410905,90.2328411 100.015374,98.2864749 C102.433278,103.688912 103.485859,107.024714 103.914062,113.157945 C104.828774,126.259547 98.2618352,127.796018 92.7621841,127.976108 L92.3889621,127.986405 C92.0175946,127.99484 91.652092,127.998048 91.2951638,127.999264 L90.9411942,127.999937 C90.8242239,128.00002 90.7083067,128.000002 90.593543,128.000002 L9.37086596,128.000002 C-0.0389005367,128.000002 -5.87235982,123.741751 9.37086596,110.183651 C15.6740697,104.690562 30.6867537,91.3182948 46.974571,85.22906 Z M128,9.37086596 C128,-0.0389005367 132.258185,-5.87235982 145.816305,9.37086596 C151.309403,15.6740697 164.68169,30.6867537 170.770934,46.974571 C176.220745,61.5520006 176.800457,69.222012 175.260508,77.8391883 C173.418303,88.1477143 165.767145,96.410905 157.713499,100.015374 C152.311054,102.433278 148.975247,103.485859 142.842007,103.914062 C129.740385,104.828774 128.203967,98.2618352 128.023891,92.7621841 L128.013595,92.3889621 C128.005161,92.0175946 128.001953,91.652092 128.000737,91.2951638 L128,90.593543 Z" id="mark" fill="url(#linearGradient-1)"></path>
            <path d="M361.73913,188 C364.057971,188 366.492754,187.795972 369.043478,187.387917 C371.594203,186.979862 373.797101,186.426073 375.652174,185.72655 L374.956522,169.287758 C373.681159,169.870694 372.231884,170.307896 370.608696,170.599364 C368.985507,170.890832 367.478261,171.036566 366.086957,171.036566 C361.449275,171.036566 358.463768,169.812401 357.130435,167.36407 C355.797101,164.915739 355.130435,161.826179 355.130435,158.09539 L355.130435,119.096979 L376,119.096979 L376,102.308426 L355.130435,102.308426 L355.130435,78 L334.608696,78 L334.608696,102.308426 L320,102.308426 L320,119.096979 L334.608696,119.096979 L334.608696,158.27027 C334.608696,162.350821 334.985507,166.169051 335.73913,169.72496 C336.492754,173.280869 337.884058,176.428723 339.913043,179.168521 C341.942029,181.90832 344.695652,184.065183 348.173913,185.63911 C351.652174,187.213037 356.173913,188 361.73913,188 Z M433.235294,188 C439.588235,188 445.088235,186.385628 449.735294,183.156883 C454.382353,179.928138 457.647059,176.200405 459.529412,171.973684 L459.882353,171.973684 L459.882353,186 L480,186 L480,101 L458.727273,101 L458.727273,147 C458.727273,149.817814 458.411765,153.100202 457.588235,155.859312 C456.764706,158.618421 455.558824,161.054656 453.970588,163.168016 C452.382353,165.281377 450.323529,167.013158 447.794118,168.36336 C445.264706,169.713563 442.352941,170.388664 439.058824,170.388664 C435.647059,170.388664 432.911765,169.684211 430.852941,168.275304 C428.794118,166.866397 427.176471,165.075911 426,162.903846 C424.823529,160.731781 424.058824,158.295547 423.705882,155.595142 C423.352941,152.894737 423.272727,149.465587 423.272727,147 L423.272727,101 L402,101 L402,153.834008 C402,158.178138 402.588235,162.404858 403.764706,166.51417 C404.941176,170.623482 406.794118,174.263158 409.323529,177.433198 C411.852941,180.603239 415.088235,183.156883 419.029412,185.09413 C422.970588,187.031377 427.705882,188 433.235294,188 Z M526.979021,186 L526.979021,140.738866 C526.979021,139.212551 527.270396,137.157895 527.853147,134.574899 C528.435897,131.991903 529.543124,129.467611 531.174825,127.002024 C532.806527,124.536437 535.079254,122.423077 537.993007,120.661943 C540.90676,118.90081 544.752914,118.020243 549.531469,118.020243 C550.463869,118.020243 551.425408,118.078947 552.416084,118.196356 C553.40676,118.313765 554.601399,118.548583 556,118.90081 L556,99.5283401 C555.300699,99.2935223 554.484848,99.1467611 553.552448,99.0880567 C552.620047,99.0293522 551.745921,99 550.93007,99 C545.335664,99 540.440559,100.526316 536.244755,103.578947 C532.048951,106.631579 528.785548,110.623482 526.454545,115.554656 L526.104895,115.554656 L526.104895,101.465587 L506,101.465587 L506,186 L526.979021,186 Z M631.460348,188 C637.914249,188 643.693424,186.79725 648.797872,184.391749 C653.902321,181.986249 658.244036,178.759358 661.823017,174.711077 C665.401999,170.662796 668.159574,165.910466 670.095745,160.454087 C672.031915,154.997708 673,149.159969 673,142.940871 C673,136.721772 672.002579,130.913369 670.007737,125.515661 C668.012895,120.117953 665.196647,115.424293 661.558994,111.434683 C657.921341,107.445073 653.579626,104.306188 648.533849,102.018029 C643.488072,99.7298701 637.972921,98.5857907 631.988395,98.5857907 C628.116054,98.5857907 624.654417,99.0258212 621.603482,99.9058824 C618.552547,100.785943 615.882979,101.871352 613.594778,103.162108 C611.306576,104.452865 609.34107,105.860963 607.698259,107.386402 C606.055448,108.911841 604.705996,110.37861 603.649903,111.786707 L603.121857,111.786707 L603.121857,61 L582,61 L582,186 L602.065764,186 L602.065764,172.862949 L602.417795,172.862949 C605.351386,177.791291 609.429078,181.546218 614.65087,184.127731 C619.872663,186.709244 625.475822,188 631.460348,188 Z M629.258065,171 C625.473118,171 622.089606,170.216129 619.107527,168.648387 C616.125448,167.080645 613.573477,165.019355 611.451613,162.464516 C609.329749,159.909677 607.724014,157.035484 606.634409,153.841935 C605.544803,150.648387 605,147.425806 605,144.174194 C605,140.922581 605.544803,137.670968 606.634409,134.419355 C607.724014,131.167742 609.329749,128.264516 611.451613,125.709677 C613.573477,123.154839 616.125448,121.064516 619.107527,119.43871 C622.089606,117.812903 625.473118,117 629.258065,117 C633.272401,117 636.770609,117.783871 639.752688,119.351613 C642.734767,120.919355 645.200717,122.980645 647.150538,125.535484 C649.100358,128.090323 650.562724,130.964516 651.537634,134.158065 C652.512545,137.351613 653,140.574194 653,143.825806 C653,147.077419 652.512545,150.329032 651.537634,153.580645 C650.562724,156.832258 649.100358,159.735484 647.150538,162.290323 C645.200717,164.845161 642.734767,166.935484 639.752688,168.56129 C636.770609,170.187097 633.272401,171 629.258065,171 Z M744,189 C750.206897,189 756.068966,187.877953 761.586207,185.633858 C767.103448,183.389764 771.873563,180.28937 775.896552,176.332677 C779.91954,172.375984 783.109195,167.622047 785.465517,162.070866 C787.821839,156.519685 789,150.377953 789,143.645669 C789,136.913386 787.821839,130.801181 785.465517,125.309055 C783.109195,119.816929 779.91954,115.122047 775.896552,111.224409 C771.873563,107.326772 767.103448,104.314961 761.586207,102.188976 C756.068966,100.062992 750.206897,99 744,99 C737.793103,99 731.931034,100.062992 726.413793,102.188976 C720.896552,104.314961 716.126437,107.326772 712.103448,111.224409 C708.08046,115.122047 704.890805,119.816929 702.534483,125.309055 C700.178161,130.801181 699,136.913386 699,143.645669 C699,150.377953 700.178161,156.519685 702.534483,162.070866 C704.890805,167.622047 708.08046,172.375984 712.103448,176.332677 C716.126437,180.28937 720.896552,183.389764 726.413793,185.633858 C731.931034,187.877953 737.793103,189 744,189 Z M744,171 C739.856115,171 736.28777,170.187097 733.294964,168.56129 C730.302158,166.935484 727.827338,164.845161 725.870504,162.290323 C723.913669,159.735484 722.446043,156.832258 721.467626,153.580645 C720.489209,150.329032 720,147.077419 720,143.825806 C720,140.574194 720.489209,137.351613 721.467626,134.158065 C722.446043,130.964516 723.913669,128.090323 725.870504,125.535484 C727.827338,122.980645 730.302158,120.919355 733.294964,119.351613 C736.28777,117.783871 739.856115,117 744,117 C748.143885,117 751.71223,117.783871 754.705036,119.351613 C757.697842,120.919355 760.172662,122.980645 762.129496,125.535484 C764.086331,128.090323 765.553957,130.964516 766.532374,134.158065 C767.510791,137.351613 768,140.574194 768,143.825806 C768,147.077419 767.510791,150.329032 766.532374,153.580645 C765.553957,156.832258 764.086331,159.735484 762.129496,162.290323 C760.172662,164.845161 757.697842,166.935484 754.705036,168.56129 C751.71223,170.187097 748.143885,171 744,171 Z M850.130435,78 L850.130435,102.308426 L871,102.308426 L871,119.096979 L850.130435,119.096979 L850.130435,158.09539 C850.130435,161.826179 850.797101,164.915739 852.130435,167.36407 C853.463768,169.812401 856.449275,171.036566 861.086957,171.036566 C862.478261,171.036566 863.985507,170.890832 865.608696,170.599364 C867.231884,170.307896 868.681159,169.870694 869.956522,169.287758 L869.956522,169.287758 L870.652174,185.72655 C868.797101,186.426073 866.594203,186.979862 864.043478,187.387917 C861.492754,187.795972 859.057971,188 856.73913,188 C851.173913,188 846.652174,187.213037 843.173913,185.63911 C839.695652,184.065183 836.942029,181.90832 834.913043,179.168521 C832.884058,176.428723 831.492754,173.280869 830.73913,169.72496 C829.985507,166.169051 829.608696,162.350821 829.608696,158.27027 L829.608696,158.27027 L829.608696,119.096979 L815,119.096979 L815,102.308426 L829.608696,102.308426 L829.608696,78 L850.130435,78 Z M919,101 L919,186 L899,186 L899,101 L919,101 Z M908.844156,61 C912.272727,61 915.155844,62.1388889 917.493506,64.4166667 C919.831169,66.6944444 921,69.5555556 921,73 C921,76.4444444 919.831169,79.3055556 917.493506,81.5833333 C915.155844,83.8611111 912.272727,85 908.844156,85 C905.415584,85 902.584416,83.8055556 900.350649,81.4166667 C898.116883,79.0277778 897,76.2222222 897,73 C897,69.7777778 898.116883,66.9722222 900.350649,64.5833333 C902.584416,62.1944444 905.415584,61 908.844156,61 Z M992.707763,188 C999.03653,188 1004.9258,186.978018 1010.37557,184.934055 C1015.82534,182.890092 1020.30822,179.999344 1023.8242,176.261811 L1023.8242,176.261811 L1010.63927,162.94685 C1008.64688,165.399606 1006.00989,167.268373 1002.72831,168.55315 C999.446728,169.837927 996.165145,170.480315 992.883562,170.480315 C988.898782,170.480315 985.4121,169.691929 982.423516,168.115157 C979.434932,166.538386 976.944444,164.465223 974.952055,161.895669 C972.959665,159.326115 971.465373,156.435367 970.469178,153.223425 C969.472983,150.011483 968.974886,146.770341 968.974886,143.5 C968.974886,140.229659 969.443683,136.988517 970.381279,133.776575 C971.318874,130.564633 972.754566,127.673885 974.688356,125.104331 C976.622146,122.534777 979.054033,120.461614 981.984018,118.884843 C984.914003,117.308071 988.312785,116.519685 992.180365,116.519685 C995.579148,116.519685 998.91933,117.308071 1002.20091,118.884843 C1005.4825,120.461614 1007.94368,122.417979 1009.58447,124.753937 L1009.58447,124.753937 L1024,112.139764 C1020.60122,108.051837 1016.00114,104.839895 1010.19977,102.503937 C1004.3984,100.167979 998.391933,99 992.180365,99 C985.968798,99 980.138128,100.051181 974.688356,102.153543 C969.238584,104.255906 964.462709,107.234252 960.360731,111.088583 C956.258752,114.942913 953.006469,119.614829 950.603881,125.104331 C948.201294,130.593832 947,136.725722 947,143.5 C947,150.507874 948.201294,156.756562 950.603881,162.246063 C953.006469,167.735564 956.288052,172.40748 960.44863,176.261811 C964.609209,180.116142 969.472983,183.036089 975.039954,185.021654 C980.606925,187.007218 986.496195,188 992.707763,188 Z" id="turbotic" fill="#000000"></path>
        </g>
    </g>
</svg>